HIERARCHY
ROOT hips
{
	OFFSET -0.003675 0.299928 -0.021708
	CHANNELS 6 Xposition Yposition Zposition Xrotation Yrotation Zrotation
	JOINT LowerBack
	{
		OFFSET 0.000919 0.177588 0.009275
		CHANNELS 3 Xrotation Yrotation Zrotation
		JOINT spine
		{
			OFFSET 0.000919 0.177588 0.009275
			CHANNELS 3 Xrotation Yrotation Zrotation
			JOINT chest
			{
				OFFSET 0.000456 0.100015 0.004638
				CHANNELS 3 Xrotation Yrotation Zrotation
				JOINT neck
				{
					OFFSET 0.000456 0.100015 0.004638
					CHANNELS 3 Xrotation Yrotation Zrotation
					JOINT head
					{
						OFFSET 0.000924 0.155147 0.009274
						CHANNELS 6 Xposition Yposition Zposition Xrotation Yrotation Zrotation
						End Site
						{
							OFFSET 0.000000 0.153400 0.000000
						}
					}
				}
				JOINT shoulder.L
				{
					OFFSET 0.019937 0.078966 0.057518
					CHANNELS 6 Xposition Yposition Zposition Yrotation Xrotation Zrotation
					JOINT upper_arm.L
					{
						OFFSET 0.177024 -0.020465 -0.095062
						CHANNELS 6 Xposition Yposition Zposition Xrotation Yrotation Zrotation
						JOINT forearm.L
						{
							OFFSET 0.247100 -0.135500 -0.061800
							CHANNELS 3 Xrotation Yrotation Zrotation
							JOINT hand.L
							{
								OFFSET 0.217000 -0.143000 0.039300
								CHANNELS 3 Xrotation Yrotation Zrotation
								JOINT palm.01.L
								{
									OFFSET 0.021770 -0.038291 0.012954
									CHANNELS 6 Xposition Yposition Zposition Yrotation Xrotation Zrotation
									JOINT f_index.01.L
									{
										OFFSET 0.053215 -0.044137 0.008236
										CHANNELS 3 Xrotation Yrotation Zrotation
										JOINT f_index.02.L
										{
											OFFSET 0.036108 -0.024723 -0.010656
											CHANNELS 3 Xrotation Yrotation Zrotation
											JOINT f_index.03.L
											{
												OFFSET 0.021342 -0.014948 -0.010846
												CHANNELS 3 Xrotation Yrotation Zrotation
												End Site
												{
													OFFSET 0.015600 -0.009860 -0.013421
												}
											}
										}
									}
									JOINT thumb.01.L
									{
										OFFSET -0.009090 -0.002348 -0.024223
										CHANNELS 6 Xposition Yposition Zposition Xrotation Yrotation Zrotation
										JOINT thumb.02.L
										{
											OFFSET 0.019713 -0.035076 -0.011120
											CHANNELS 3 Xrotation Yrotation Zrotation
											JOINT thumb.03.L
											{
												OFFSET 0.024877 -0.021748 -0.005176
												CHANNELS 3 Xrotation Yrotation Zrotation
												End Site
												{
													OFFSET 0.016125 -0.013029 -0.001569
												}
											}
										}
									}
								}
								JOINT palm.02.L
								{
									OFFSET 0.032823 -0.025104 0.012281
									CHANNELS 6 Xposition Yposition Zposition Yrotation Xrotation Zrotation
									JOINT f_middle.01.L
									{
										OFFSET 0.055723 -0.038469 0.008037
										CHANNELS 3 Xrotation Yrotation Zrotation
										JOINT f_middle.02.L
										{
											OFFSET 0.038167 -0.027473 -0.015582
											CHANNELS 3 Xrotation Yrotation Zrotation
											JOINT f_middle.03.L
											{
												OFFSET 0.021707 -0.016587 -0.017037
												CHANNELS 3 Xrotation Yrotation Zrotation
												End Site
												{
													OFFSET 0.014112 -0.010584 -0.014294
												}
											}
										}
									}
								}
								JOINT palm.03.L
								{
									OFFSET 0.039230 -0.011402 0.008390
									CHANNELS 6 Xposition Yposition Zposition Yrotation Xrotation Zrotation
									JOINT f_ring.01.L
									{
										OFFSET 0.061796 -0.031470 0.007910
										CHANNELS 3 Xrotation Yrotation Zrotation
										JOINT f_ring.02.L
										{
											OFFSET 0.033092 -0.023401 -0.019127
											CHANNELS 3 Xrotation Yrotation Zrotation
											JOINT f_ring.03.L
											{
												OFFSET 0.021392 -0.015362 -0.017824
												CHANNELS 3 Xrotation Yrotation Zrotation
												End Site
												{
													OFFSET 0.008670 -0.007297 -0.014686
												}
											}
										}
									}
								}
								JOINT palm.04.L
								{
									OFFSET 0.043417 0.002450 0.002889
									CHANNELS 6 Xposition Yposition Zposition Yrotation Xrotation Zrotation
									JOINT f_pinky.01.L
									{
										OFFSET 0.069986 -0.026156 0.003627
										CHANNELS 3 Xrotation Yrotation Zrotation
										JOINT f_pinky.02.L
										{
											OFFSET 0.018520 -0.012813 -0.016429
											CHANNELS 3 Xrotation Yrotation Zrotation
											JOINT f_pinky.03.L
											{
												OFFSET 0.013822 -0.009796 -0.014947
												CHANNELS 3 Xrotation Yrotation Zrotation
												End Site
												{
													OFFSET 0.007238 -0.006103 -0.011657
												}
											}
										}
									}
								}
							}
						}
					}
				}
				JOINT shoulder.R
				{
					OFFSET -0.016662 0.078957 0.057696
					CHANNELS 6 Xposition Yposition Zposition Yrotation Xrotation Zrotation
					JOINT upper_arm.R
					{
						OFFSET -0.176972 -0.020537 -0.095144
						CHANNELS 6 Xposition Yposition Zposition Xrotation Yrotation Zrotation
						JOINT forearm.R
						{
							OFFSET -0.247100 -0.135500 -0.061800
							CHANNELS 3 Xrotation Yrotation Zrotation
							JOINT hand.R
							{
								OFFSET -0.217000 -0.143000 0.039300
								CHANNELS 3 Xrotation Yrotation Zrotation
								JOINT palm.01.R
								{
									OFFSET -0.021773 -0.038278 0.012988
									CHANNELS 6 Xposition Yposition Zposition Yrotation Xrotation Zrotation
									JOINT f_index.01.R
									{
										OFFSET -0.053212 -0.044139 0.008249
										CHANNELS 3 Xrotation Yrotation Zrotation
										JOINT f_index.02.R
										{
											OFFSET -0.036049 -0.024835 -0.010634
											CHANNELS 3 Xrotation Yrotation Zrotation
											JOINT f_index.03.R
											{
												OFFSET -0.021371 -0.014881 -0.010866
												CHANNELS 3 Xrotation Yrotation Zrotation
												End Site
												{
													OFFSET -0.015584 -0.009883 -0.013422
												}
											}
										}
									}
									JOINT thumb.01.R
									{
										OFFSET 0.009113 -0.002381 -0.024211
										CHANNELS 6 Xposition Yposition Zposition Xrotation Yrotation Zrotation
										JOINT thumb.02.R
										{
											OFFSET -0.019694 -0.035097 -0.011088
											CHANNELS 3 Xrotation Yrotation Zrotation
											JOINT thumb.03.R
											{
												OFFSET -0.024867 -0.021762 -0.005168
												CHANNELS 3 Xrotation Yrotation Zrotation
												End Site
												{
													OFFSET -0.016120 -0.013036 -0.001565
												}
											}
										}
									}
								}
								JOINT palm.02.R
								{
									OFFSET -0.032828 -0.025095 0.012286
									CHANNELS 6 Xposition Yposition Zposition Yrotation Xrotation Zrotation
									JOINT f_middle.01.R
									{
										OFFSET -0.055721 -0.038472 0.008040
										CHANNELS 3 Xrotation Yrotation Zrotation
										JOINT f_middle.02.R
										{
											OFFSET -0.038101 -0.027593 -0.015557
											CHANNELS 3 Xrotation Yrotation Zrotation
											JOINT f_middle.03.R
											{
												OFFSET -0.021730 -0.016530 -0.017054
												CHANNELS 3 Xrotation Yrotation Zrotation
												End Site
												{
													OFFSET -0.014096 -0.010608 -0.014293
												}
											}
										}
									}
								}
								JOINT palm.03.R
								{
									OFFSET -0.039192 -0.011488 0.008390
									CHANNELS 6 Xposition Yposition Zposition Yrotation Xrotation Zrotation
									JOINT f_ring.01.R
									{
										OFFSET -0.061839 -0.031387 0.007876
										CHANNELS 3 Xrotation Yrotation Zrotation
										JOINT f_ring.02.R
										{
											OFFSET -0.033068 -0.023437 -0.019125
											CHANNELS 3 Xrotation Yrotation Zrotation
											JOINT f_ring.03.R
											{
												OFFSET -0.021371 -0.015393 -0.017822
												CHANNELS 3 Xrotation Yrotation Zrotation
												End Site
												{
													OFFSET -0.008654 -0.007321 -0.014684
												}
											}
										}
									}
								}
								JOINT palm.04.R
								{
									OFFSET -0.043421 0.002443 0.002845
									CHANNELS 6 Xposition Yposition Zposition Yrotation Xrotation Zrotation
									JOINT f_pinky.01.R
									{
										OFFSET -0.069983 -0.026169 0.003599
										CHANNELS 3 Xrotation Yrotation Zrotation
										JOINT f_pinky.02.R
										{
											OFFSET -0.018501 -0.012842 -0.016428
											CHANNELS 3 Xrotation Yrotation Zrotation
											JOINT f_pinky.03.R
											{
												OFFSET -0.013806 -0.009821 -0.014946
												CHANNELS 3 Xrotation Yrotation Zrotation
												End Site
												{
													OFFSET -0.007226 -0.006121 -0.011655
												}
											}
										}
									}
								}
							}
						}
					}
				}
			}
		}
	}
	JOINT pelvis.L
	{
		OFFSET 0.000000 0.000000 0.000000
		CHANNELS 6 Xposition Yposition Zposition Xrotation Yrotation Zrotation
		JOINT thigh.L
		{
			OFFSET 0.101675 0.001054 -0.000000
			CHANNELS 3 Xrotation Yrotation Zrotation
			JOINT shin.L
			{
				OFFSET 0.000000 -0.534800 0.041000
				CHANNELS 3 Xrotation Yrotation Zrotation
				JOINT foot.L
				{
					OFFSET 0.000000 -0.452000 -0.044800
					CHANNELS 3 Xrotation Yrotation Zrotation
					JOINT toe.L
					{
						OFFSET -0.000000 -0.068500 0.109600
						CHANNELS 3 Xrotation Yrotation Zrotation
						End Site
						{
							OFFSET -0.000000 0.000000 0.067200
						}
					}
				}
				JOINT heel.L
				{
					OFFSET 0.000000 -0.452000 -0.044800
					CHANNELS 3 Xrotation Yrotation Zrotation
					JOINT heel.02.L
					{
						OFFSET -0.038000 -0.085200 0.016200
						CHANNELS 6 Xposition Yposition Zposition Xrotation Yrotation Zrotation
						End Site
						{
							OFFSET 0.080000 -0.000000 0.000000
						}
					}
				}
			}
		}
	}
	JOINT pelvis.R
	{
		OFFSET 0.000000 0.000000 0.000000
		CHANNELS 6 Xposition Yposition Zposition Xrotation Yrotation Zrotation
		JOINT thigh.R
		{
			OFFSET -0.094325 0.001054 0.000000
			CHANNELS 3 Xrotation Yrotation Zrotation
			JOINT shin.R
			{
				OFFSET 0.000000 -0.534800 0.041000
				CHANNELS 3 Xrotation Yrotation Zrotation
				JOINT foot.R
				{
					OFFSET 0.000000 -0.452000 -0.044800
					CHANNELS 3 Xrotation Yrotation Zrotation
					JOINT toe.R
					{
						OFFSET -0.000000 -0.068500 0.109600
						CHANNELS 3 Xrotation Yrotation Zrotation
						End Site
						{
							OFFSET -0.000000 0.000000 0.067200
						}
					}
				}
				JOINT heel.R
				{
					OFFSET 0.000000 -0.452000 -0.044800
					CHANNELS 3 Xrotation Yrotation Zrotation
					JOINT heel.02.R
					{
						OFFSET 0.038000 -0.085200 0.016200
						CHANNELS 6 Xposition Yposition Zposition Xrotation Yrotation Zrotation
						End Site
						{
							OFFSET -0.080000 0.000000 -0.000000
						}
					}
				}
			}
		}
	}
}
MOTION
Frames: 4
Frame Time: 0.041667
-0.003675 0.299928 -0.021708 0.000000 -0.000000 0.000000 -0.000001 0.000000 0.000000 -0.000000 0.000000 0.000000 -0.000000 0.000000 0.000000 -0.000000 -0.000000 -0.000000 0.000924 0.155147 0.009274 -0.000001 -0.000000 -0.000000 0.019937 0.078966 0.057518 0.000001 -0.000002 -0.000004 0.177024 -0.020465 -0.095062 -0.000003 -0.000002 0.000015 -0.000010 -0.000004 -0.000009 -0.000001 -0.000001 0.000001 0.021770 -0.038291 0.012954 0.000001 0.000001 0.000005 -0.000000 -0.000001 -0.000000 -0.000002 -0.000003 0.000001 0.000000 0.000004 -0.000000 -0.009090 -0.002348 -0.024223 0.000001 0.000001 -0.000001 0.000001 0.000001 0.000001 -0.000000 0.000001 0.000004 0.032823 -0.025104 0.012281 0.000000 -0.000000 0.000000 -0.000000 0.000003 0.000000 -0.000001 -0.000003 0.000001 -0.000003 -0.000002 0.000002 0.039230 -0.011402 0.008390 0.000000 -0.000001 0.000004 0.000000 0.000001 -0.000002 -0.000000 0.000003 -0.000001 0.000003 0.000000 0.000003 0.043417 0.002450 0.002889 0.000000 0.000001 -0.000002 -0.000001 -0.000003 -0.000002 -0.000001 0.000000 0.000001 -0.000001 0.000001 0.000001 -0.016662 0.078956 0.057696 -0.000000 0.000004 0.000012 -0.176972 -0.020537 -0.095144 -0.000001 -0.000002 -0.000007 -0.000006 0.000005 -0.000016 -0.000000 0.000001 0.000005 -0.021773 -0.038278 0.012988 -0.000001 -0.000003 -0.000002 0.000000 0.000001 0.000001 0.000000 0.000000 0.000001 0.000001 0.000000 0.000004 0.009113 -0.002381 -0.024212 0.000002 -0.000002 0.000004 -0.000000 0.000000 0.000002 0.000001 0.000000 -0.000003 -0.032828 -0.025095 0.012286 0.000000 -0.000001 -0.000003 0.000000 0.000001 0.000001 0.000000 0.000005 -0.000002 -0.000001 0.000001 -0.000002 -0.039192 -0.011488 0.008390 -0.000000 0.000001 0.000001 -0.000002 0.000003 -0.000002 0.000001 -0.000004 0.000002 -0.000003 0.000006 -0.000002 -0.043421 0.002443 0.002844 -0.000000 -0.000001 -0.000001 -0.000005 0.000005 -0.000001 -0.000000 -0.000002 -0.000002 -0.000000 -0.000001 -0.000000 -0.000000 0.000000 -0.000000 -0.000001 -0.000000 0.000001 0.000009 -0.000202 0.000014 -0.000026 0.000202 -0.000015 0.000000 -0.000000 -0.000000 0.000002 -0.000000 -0.000000 0.000000 0.000000 -0.000000 -0.038000 -0.085200 0.016200 0.000000 0.000000 0.000000 0.000000 -0.000000 -0.000000 -0.000001 0.000000 -0.000004 0.000008 -0.000013 0.000005 -0.000012 0.000013 -0.000001 -0.000003 -0.000000 -0.000000 0.000000 -0.000000 -0.000000 0.000002 -0.000000 -0.000000 0.038000 -0.085200 0.016200 0.000002 -0.000000 0.000000 
-0.007504 0.255965 -0.010339 -13.151752 -103.633641 -18.836753 -0.000000 0.000000 0.000000 -0.000001 0.000001 -0.000000 0.000001 -0.000001 -0.000001 0.000001 -0.000002 0.000000 0.000924 0.155147 0.009274 0.064200 0.002833 9.011461 0.019937 0.078966 0.057518 -9.110777 2.035048 34.833586 0.177024 -0.020465 -0.095062 -25.228113 15.188655 -64.723576 -47.973596 -9.786890 -49.684715 -0.000001 -0.000001 -0.000000 0.021770 -0.038291 0.012954 -0.000000 0.000002 -0.000001 -0.000000 -0.000002 -0.000000 0.000000 -0.000000 0.000005 -0.000000 -0.000002 -0.000001 -0.009090 -0.002348 -0.024224 -0.000000 -0.000002 0.000001 0.000001 -0.000001 -0.000000 -0.000000 -0.000001 -0.000002 0.032823 -0.025104 0.012281 -0.000001 0.000002 0.000007 0.000003 0.000002 -0.000005 -0.000003 0.000003 0.000001 0.000000 -0.000002 0.000004 0.039230 -0.011402 0.008390 -0.000000 0.000002 0.000006 -0.000001 0.000002 -0.000002 -0.000002 -0.000000 0.000003 -0.000001 -0.000002 0.000003 0.043417 0.002450 0.002889 -0.000002 0.000002 -0.000002 0.000002 -0.000003 -0.000002 0.000001 0.000004 -0.000000 -0.000000 -0.000001 0.000001 -0.016662 0.078957 0.057696 -10.620166 2.649689 -27.549990 -0.176972 -0.020537 -0.095144 -27.585006 -8.814225 48.002682 -47.274799 -0.346066 62.831778 0.000000 0.000000 0.000002 -0.021773 -0.038278 0.012988 0.000000 -0.000000 -0.000003 -0.000004 0.000001 -0.000001 -0.000001 -0.000006 -0.000001 -0.000002 -0.000005 0.000003 0.009114 -0.002381 -0.024212 -0.000000 -0.000002 0.000002 0.000000 0.000000 -0.000001 0.000001 0.000001 0.000001 -0.032828 -0.025095 0.012286 0.000002 -0.000000 -0.000005 0.000001 0.000003 0.000001 0.000003 -0.000002 0.000001 -0.000001 0.000005 -0.000008 -0.039192 -0.011488 0.008390 0.000002 0.000001 -0.000002 -0.000001 0.000003 -0.000005 -0.000000 -0.000001 -0.000002 0.000001 0.000003 -0.000006 -0.043421 0.002443 0.002845 -0.000000 -0.000002 -0.000003 -0.000005 0.000006 0.000006 -0.000004 0.000002 -0.000000 -0.000002 0.000003 -0.000005 0.000000 0.000000 0.000000 -1.992963 0.766661 -9.694739 -34.375943 -0.152782 -0.031664 20.839749 0.141419 -1.425012 0.000000 0.000002 -0.000002 0.000001 0.000000 -0.000003 0.000002 0.000000 0.000002 -0.038000 -0.085200 0.016200 0.000001 0.000000 -0.000002 -0.000000 0.000000 0.000000 -1.923397 0.755520 -8.461464 11.459918 -0.129223 -1.251272 11.435014 0.311562 -3.144801 0.000002 0.000000 0.000000 0.000004 0.000002 0.000001 0.000002 -0.000000 -0.000000 0.038000 -0.085200 0.016200 -0.000003 -0.000002 0.000000 
-0.007679 0.258318 -0.010895 -21.477057 -101.498571 -27.066771 -0.000000 -0.000000 0.000000 -0.000001 -0.000000 0.000001 -0.000000 0.000000 -0.000001 -0.000001 0.000000 -0.000000 0.000924 0.155147 0.009274 -3.060387 0.012329 7.546874 0.019937 0.078966 0.057518 -10.213674 2.236396 34.379573 0.177025 -0.020465 -0.095062 -26.455191 15.524832 -64.846977 -48.330548 0.710402 -63.531189 -0.000003 0.000001 0.000003 0.021770 -0.038291 0.012954 0.000000 0.000001 0.000001 0.000001 -0.000005 0.000003 0.000003 -0.000004 0.000010 -0.000000 -0.000001 0.000001 -0.009090 -0.002348 -0.024223 0.000003 -0.000006 -0.000000 -0.000003 0.000003 -0.000000 -0.000003 -0.000002 -0.000001 0.032823 -0.025104 0.012281 -0.000001 -0.000001 0.000004 -0.000004 0.000003 -0.000003 -0.000000 -0.000000 0.000003 -0.000002 0.000001 0.000003 0.039230 -0.011402 0.008390 0.000003 0.000003 0.000006 0.000002 0.000003 -0.000005 -0.000001 0.000002 0.000005 0.000004 -0.000002 0.000003 0.043417 0.002450 0.002889 -0.000003 0.000002 -0.000000 0.000003 0.000003 -0.000000 0.000002 -0.000001 -0.000003 0.000001 -0.000001 -0.000000 -0.016662 0.078957 0.057696 -9.511646 3.231180 -29.105608 -0.176972 -0.020537 -0.095144 -27.230938 -8.234542 47.016809 -43.424147 -7.991750 76.657030 0.000000 0.000004 0.000003 -0.021773 -0.038278 0.012988 0.000002 -0.000000 -0.000005 -0.000001 0.000003 -0.000001 -0.000002 0.000003 -0.000001 0.000001 0.000003 -0.000000 0.009114 -0.002381 -0.024211 0.000002 0.000000 -0.000003 -0.000000 -0.000004 0.000000 0.000004 0.000003 -0.000003 -0.032828 -0.025095 0.012286 0.000001 -0.000002 0.000001 -0.000000 0.000003 -0.000001 -0.000002 -0.000003 -0.000002 -0.000004 0.000001 -0.000006 -0.039192 -0.011488 0.008390 -0.000000 -0.000001 0.000001 0.000002 0.000003 -0.000002 -0.000001 -0.000004 0.000002 -0.000006 0.000003 -0.000000 -0.043421 0.002443 0.002845 0.000001 -0.000000 0.000002 0.000001 0.000002 -0.000001 0.000001 -0.000003 0.000000 -0.000004 0.000001 0.000003 0.000000 0.000000 -0.000000 -1.919689 0.627410 -8.242905 -35.814616 -0.231644 -1.014460 25.353370 0.359028 -3.622849 -0.000002 -0.000000 -0.000001 -0.000000 -0.000000 0.000000 0.000003 -0.000002 -0.000001 -0.038000 -0.085200 0.016200 0.000001 -0.000001 -0.000003 0.000000 -0.000000 0.000000 -1.857040 0.619001 -7.009388 13.261790 -0.140114 -1.274462 18.213779 0.192680 -1.944095 -0.000002 0.000002 0.000001 0.000005 0.000000 0.000000 0.000007 0.000001 -0.000000 0.038000 -0.085200 0.016200 -0.000003 -0.000001 -0.000001 
-0.007600 0.258327 -0.010974 -20.148377 -101.761950 -25.725653 0.000001 0.000000 -0.000000 -0.000002 0.000001 -0.000000 -0.000001 0.000000 0.000001 -0.000000 -0.000000 0.000001 0.000924 0.155148 0.009274 -3.063507 0.012271 7.648742 0.019937 0.078966 0.057518 -9.934785 2.216719 34.303303 0.177024 -0.020465 -0.095062 -26.207156 15.414482 -64.700620 -48.263384 0.940939 -63.891529 -0.000000 0.000004 -0.000007 0.021770 -0.038291 0.012954 0.000002 0.000002 -0.000001 0.000000 -0.000004 0.000003 0.000002 0.000003 0.000005 -0.000000 0.000002 0.000002 -0.009090 -0.002348 -0.024224 0.000003 -0.000006 -0.000000 -0.000000 0.000004 0.000005 -0.000001 0.000005 -0.000004 0.032823 -0.025104 0.012281 0.000001 0.000000 0.000002 -0.000002 0.000000 -0.000007 -0.000003 -0.000002 -0.000000 -0.000005 0.000001 0.000003 0.039230 -0.011402 0.008390 0.000002 -0.000001 0.000001 -0.000001 -0.000003 -0.000000 -0.000002 0.000006 0.000005 0.000003 -0.000001 -0.000001 0.043417 0.002450 0.002889 0.000000 0.000002 -0.000002 0.000003 -0.000004 -0.000002 -0.000004 0.000000 0.000001 -0.000001 -0.000001 -0.000000 -0.016662 0.078956 0.057696 -9.288669 3.199544 -29.178561 -0.176972 -0.020537 -0.095144 -27.283604 -8.231945 46.998156 -43.191647 -7.801118 76.604349 -0.000001 0.000001 0.000000 -0.021773 -0.038278 0.012988 0.000001 -0.000003 -0.000007 0.000000 0.000000 -0.000003 0.000000 -0.000001 -0.000008 0.000001 0.000005 0.000004 0.009113 -0.002381 -0.024212 0.000001 -0.000000 0.000001 0.000001 -0.000003 -0.000001 0.000001 -0.000003 -0.000006 -0.032828 -0.025095 0.012286 0.000004 -0.000000 -0.000003 -0.000002 0.000002 -0.000001 0.000002 0.000000 0.000000 -0.000008 -0.000002 -0.000000 -0.039192 -0.011488 0.008390 0.000001 0.000001 -0.000000 -0.000003 0.000000 -0.000002 0.000004 0.000002 -0.000000 -0.000003 -0.000001 -0.000002 -0.043421 0.002443 0.002845 0.000001 -0.000002 -0.000003 -0.000001 0.000007 -0.000003 -0.000001 -0.000003 0.000002 -0.000005 0.000000 -0.000002 0.000000 0.000000 -0.000000 -1.921543 0.624603 -8.207942 -35.536173 -0.218258 -0.849171 25.043049 0.341657 -3.447243 -0.000002 -0.000000 -0.000002 0.000002 -0.000004 -0.000005 0.000003 0.000003 0.000000 -0.038000 -0.085200 0.016200 0.000001 -0.000000 0.000001 0.000000 0.000000 0.000000 -1.858945 0.616241 -6.974427 12.959724 -0.144667 -1.353441 18.207500 0.176431 -1.779967 0.000003 0.000002 0.000002 0.000003 0.000001 0.000001 0.000007 0.000001 0.000001 0.038000 -0.085200 0.016200 0.000001 -0.000002 -0.000001 
